<?xml version="1.0" ?>
<svg 
  viewBox="0 0 64 64" 
  xmlns="http://www.w3.org/2000/svg"
>
<title/>
<g id="Bookmark">
<path 
  d="M49,2H15a4.0039,4.0039,0,0,0-4,4V61a1,1,0,0,0,1.4473.8945L32,52.1182l19.5527,9.7763A1,1,0,0,0,53,61V6A4.0039,4.0039,0,0,0,49,2Z" 
  style="fill:#ffacb7"
/>
<path 
  d="M49,2H32V52.1182l19.5527,9.7763A1,1,0,0,0,53,61V6A4.0039,4.0039,0,0,0,49,2Z" 
  style="opacity:0.1"/>
<path 
  d="M49,2H15a4.0039,4.0039,0,0,0-4,4V61a1,1,0,0,0,1.4473.8945L32,52.1182l19.5527,9.7763A1,1,0,0,0,53,61V6A4.0039,4.0039,0,0,0,49,2Zm2,57.3818L32.4473,50.1055a1.001,1.001,0,0,0-.8946,0L13,59.3818V6a2.0027,2.0027,0,0,1,2-2H49a2.0027,2.0027,0,0,1,2,2Z" 
  style="fill:#7296d6"
/>
</g>
</svg>